 <svg class="-rotate-[27deg] preloader" xmlns="http://www.w3.org/2000/svg" width="100%" viewBox="0 0 512 512"
                        height="500" xmlns:v="https://vecta.io/nano">
                        <path class="path_1" fill="#343e47"
                            d="M513 313.546c-25.018.988-44.274 11.133-57.988 32.725-7.84 12.345-12.852 25.251-15.464 39.434-2.156 11.704-9.373 20.618-17.006 29.252-11.829 13.38-21.371 28.239-28.898 44.457-4.244 9.143-9.056 18.022-13.895 27.576-4.927-7.494-9.084-14.406-13.824-20.892-7.902-10.811-15.519-21.947-24.484-31.833-8.775-9.676-18.705-18.423-28.826-26.726-10.659-8.745-23.634-13.022-36.862-16.575-14.705-3.95-28.191-10.516-40.42-19.75-8.272-6.246-13.012-14.892-17.351-23.84-.507-1.044.928-3.552 2.089-4.797 6.229-6.678 10.5-14.363 13.073-23.111 1.332-4.529-.089-7.814-3.774-10.284l-28.521-18.863c-18.756-11.719-38.196-22.075-59.279-29.144-4.714-1.58-6.954-.777-9.269 3.851l-38.732 75.898-29.922 60.852-33.597 71.125-14.765 32.606c-2.252 5.034-4.801 5.711-9.001 2.215-1.521-1.266-3.051-2.52-4.93-3.751C1 500.307 1 496.614 1 492.461c3.145-5.754 6.672-10.862 9.354-16.381 5.655-11.636 10.629-23.603 16.304-35.229l61.408-124.848 51.719-99.481 35.135-68.291 43.501-85.289 17.975-36.097c.985-2.047 1.264-4.761.952-7.041-.881-6.446 3.011-12.784 9.403-14.524 6.755-1.839 13.302 1.064 15.844 7.026 2.876 6.743.829 13.562-5.102 16.855-2.251 1.25-5.204 1.871-6.705 3.705-3.172 3.874-3.64 7.981-.227 12.663 5.712 7.833 11.973 14.981 19.98 20.48 14.488 9.95 28.805 19.964 45.083 27.215 13.404 5.971 26.275 13.621 38.303 22.064 12.232 8.586 21.326 20.502 21.707 36.254.132 5.453-3.34 11.163-5.803 16.459-2.226 4.787-5.126 9.303-8.093 13.692-2.573 3.806-1.448 6.61 1.148 9.787 11.675 14.284 26.689 23.322 43.816 29.762 14.252 5.359 28.463 11.188 41.832 18.404 8.899 4.804 16.375 12.301 24.326 18.79 15.196 12.401 27.823 27.021 37.509 44.132.367.648 1.266.995 2.274 1.458.357 3.005.357 6.036.357 9.521M238.532 36.359l-4.08-.585c.762 1.953 1.218 3.123.965 4.671-1.442.931-3.428 1.538-4.215 2.859-1.774 2.976-2.815 6.378-4.399 9.481l-97.1 190.096-2.797 5.546c7.459 5.208 8.784 4.84 11.889-2.689 1.076-2.609 2.221-5.202 3.515-7.709l90.36-175.067c3.16-6.128 6.054-12.392 8.787-18.008-2.118-1.939-3.776-3.457-4.726-5.232l6.477 2.034.391-1.328c-.889-.83-1.778-1.66-2.111-3.144 6.594 2.003 4.805-4.314 7.123-6.311l-8.61-4.92c-2.14 2.927-3.746 5.856-1.469 10.308m10.715-28.538c-1.09.374-2.18.747-3.974 1.199-5.155 4.022-6.47 8.854-3.756 13.807 2.262 4.129 7.519 6.17 11.992 4.655 4.866-1.647 8.036-6.535 7.236-11.157-.973-5.622-4.631-8.483-11.499-8.504m8.749 325.182s.019.028.593-.309c14.451-13.169 24.752-29.502 35.036-45.858 3.631-5.774 7.424-11.446 11.136-17.169l25.953-40.228c6.491-10.647 12.027-21.871 18.231-32.699l20.725-35.275c3.334-5.838 3.086-12.095.847-18.361-3.998-11.192-11.122-19.965-20.664-26.858-3.01-2.175-6.185-4.123-9.641-6.411l-2.692 5.301-49.728 105.706c-6.33 12.933-14.436 25.138-22.87 36.856-6.76 9.391-15.241 17.544-23.52 26.609l-17.131 18.168c.985.663 1.89 1.13 2.624 1.789 6.533 5.867 13.339 11.472 19.441 17.76 4.123 4.249 8.813 8.771 7.838 16.276.947-1.408 1.893-2.816 3.232-4.528.25-.222.455-.48.588-.768M155.065 224.066l24.102-37.708c15.332-23.68 30.248-47.576 39.844-74.326l14.84-41.437-1.566-.623c-.723 1.232-1.51 2.432-2.161 3.701l-22.027 43.045-41.895 82.771-12.766 24.813-1.055 2.735.747.278c.445-.985.89-1.969 1.936-3.248m85.83 55.805c14.182-13.533 26.218-28.708 35.976-45.764 23.003-40.206 41.815-82.395 59.677-125.044.163-.389.02-.907.02-1.384-16.671-8.94-33.451-17.382-49.669-26.793-15.866-9.206-31.161-19.393-40.753-35.888-.274-.472-.935-.719-1.924-1.443-1.552 4.689-3.308 8.844-4.301 13.173-9.213 40.168-23.528 78.278-45.546 113.276l-44.147 69.028-12.414 17.404 8.64 2.935c25.3 8.973 48.071 22.74 70.257 37.509 4.366 2.907 7.181 2.196 10.187-1.238l13.995-15.771m204.615-37.36l-46.655-20.401c-12.687-5.621-25.093-11.656-33.695-23.288-2.313-3.127-5.258-5.787-8.548-9.349l-9.929 16.206-26.188 45.391c-6.289 10.377-13.866 19.975-20.123 30.369-13.008 21.61-27.42 42.015-45.14 60.143-7.256 7.423-15.069 11.105-25.908 10.314l-4.527-.725-.975 1.326c2.588 3.531 4.744 7.506 7.839 10.517 12.749 12.401 28.382 19.915 45.438 23.859 25.083 5.801 44.727 20.115 62.077 38.047 13.199 13.643 24.921 28.566 34.506 45.06 1.549 2.665 3.476 5.111 5.951 8.709l9.975-20.196c7.558-16.246 16.891-31.348 29.027-44.565 9.533-10.382 16.54-21.737 19.048-36.012 3.672-20.895 14.533-38.07 30.203-52.16 7.794-7.008 16.594-12.109 27.491-12.863 4.397-.305 8.727-1.59 13.677-2.543-.646-1.804-.886-3.299-1.644-4.452-4.66-7.092-8.651-14.836-14.351-20.986-9.913-10.696-20.734-20.581-31.524-30.422-4.737-4.32-10.334-7.695-16.025-11.979M94.3 330.798l36.564-70.397-8.915-2.218c-.447.66-.765 1.044-.991 1.475-40.799 77.947-79.896 156.727-115.85 237.042-2.14 4.78-.903 7.027 4.416 8.803L94.3 330.798m144.477 17.99c5.815-1.853 11.765-8.819 11.922-13.958.125-4.071-8.291-15.076-12.25-16.718l-15.451 27.979c3.964 3.602 9.513 2.927 15.779 2.697m-107.606-95.367l-5.726-2.63-2.641 6.186c3.835 0 6.784.5 9.442-.164 2.009-.502 3.012-2.414-1.074-3.392z" />
                        <path class="path_2" fill="#25663a"
                            d="M230.047 352.056c10.115.632 17.928-3.05 25.184-10.474 17.72-18.128 32.131-38.533 45.14-60.143 6.257-10.394 13.834-19.992 20.123-30.369 9.052-14.935 17.434-30.274 26.188-45.391 3.052-5.27 6.357-10.393 9.929-16.206 3.29 3.561 6.235 6.221 8.548 9.349 8.603 11.632 21.008 17.666 33.695 23.288l46.969 21.004c1.387 3.578 2.606 6.51 3.51 9.535 5.622 18.819 3.201 36.343-9.376 51.741-6.511 7.971-13.66 15.443-20.802 22.87-15.562 16.182-26.624 34.687-31.545 56.847-2.09 9.41-5.371 18.556-13.323 25.168-6.479 5.388-11.167 5.952-17.373.916-5.418-4.396-10.552-9.14-15.885-13.642-11.187-9.444-23.51-16.804-37.759-20.732l-58.151-16.428c-5.282-1.584-10.062-4.842-15.072-7.331m165.704-4.335l-4.287 1.322c-23.059 6.459-46.772-6.573-53.62-29.458-6.841-22.861 5.84-46.879 28.596-54.126 2.143-.682 4.329-1.228 7.177-2.028-24.023-3.679-45.393 8.489-54.027 30.203-8.378 21.072-.84 45.402 18.057 58.279 18.418 12.551 45.287 10.8 59.929-3.976l.021-.704-1.846.489m6.419-39.879l5.348-2.906 6.964 6.2c-2.65-7.691.631-12.033 9.034-14.789l-11.075-1.833-2.181-9.02-1.176-.605c-.913 8.647-6.328 9.666-13.683 8.365 7.531 4.275 7.01 9.657 2.243 16.535l4.526-1.947z" />
                        <path class="path_3" fill="#faf3e8"
                            d="M150.81 238.664l43.566-68.661c22.018-34.998 36.333-73.108 45.546-113.276.993-4.329 2.749-8.483 4.301-13.173.989.724 1.649.971 1.924 1.443 9.592 16.495 24.887 26.682 40.753 35.888 16.218 9.41 32.997 17.853 49.669 26.793 0 .477.143.995-.02 1.384-17.862 42.649-36.674 84.838-59.677 125.044-9.759 17.056-21.794 32.231-36.57 45.742-2.929-2.137-5.163-4.377-7.614-6.347-18.827-15.139-40.27-24.902-63.61-30.686-6.06-1.502-12.176-2.773-18.266-4.151z" />
                        <path class="path_4" fill="#18562d"
                            d="M229.685 351.977c5.372 2.569 10.152 5.827 15.433 7.411 19.291 5.785 38.732 11.075 58.151 16.428 14.249 3.928 26.572 11.289 37.759 20.732l15.885 13.642c6.207 5.036 10.894 4.472 17.373-.916 7.952-6.612 11.234-15.757 13.323-25.168 4.921-22.16 15.983-40.666 31.545-56.847 7.142-7.427 14.292-14.899 20.802-22.87 12.578-15.398 14.998-32.922 9.376-51.741-.904-3.026-2.123-5.957-3.268-9.295 5.135 3.441 10.732 6.817 15.469 11.136 10.79 9.841 21.611 19.725 31.524 30.422 5.7 6.15 9.69 13.894 14.351 20.986.758 1.154.998 2.649 1.644 4.452-4.95.953-9.28 2.238-13.677 2.543-10.898.755-19.697 5.855-27.491 12.863-15.67 14.09-26.531 31.266-30.203 52.16-2.509 14.275-9.516 25.63-19.048 36.012-12.136 13.217-21.469 28.319-29.027 44.565-2.991 6.43-6.273 12.725-9.975 20.196-2.475-3.598-4.402-6.043-5.951-8.709-9.585-16.495-21.307-31.418-34.506-45.06-17.35-17.933-36.994-32.247-62.077-38.047-17.056-3.944-32.689-11.458-45.438-23.859-3.095-3.01-5.251-6.985-7.839-10.517l.975-1.326 4.889.805z" />
                        <path class="path_5" fill="#246639"
                            d="M241.966 283.944c7.717-8.703 16.198-16.855 22.958-26.247 8.434-11.718 16.54-23.923 22.87-36.856l49.728-105.706c.694-1.483 1.481-2.923 2.692-5.301 3.457 2.288 6.631 4.236 9.641 6.411 9.542 6.893 16.665 15.665 20.664 26.858 2.239 6.266 2.487 12.523-.847 18.361l-20.725 35.275c-6.204 10.828-11.74 22.052-18.231 32.699-8.304 13.621-17.269 26.839-25.953 40.228l-11.136 17.169c-10.284 16.356-20.585 32.689-35.328 45.592-.149-1.578-.006-2.889.139-4.2 1.937-17.524-4.484-31.938-16.47-44.283z" />
                        <path class="path_6" fill="#e9e0d6"
                            d="M150.519 238.848c6.381 1.194 12.497 2.466 18.557 3.967 23.34 5.783 44.783 15.546 63.61 30.686 2.45 1.97 4.685 4.21 7.327 6.505-4.164 5.334-8.62 10.502-13.114 15.636-3.006 3.434-5.821 4.145-10.187 1.238-22.185-14.769-44.957-28.536-70.257-37.509l-8.64-2.935 12.704-17.588z" />
                        <path class="path_7" fill="#d0d5dc"
                            d="M94.146 331.133L9.524 505.504c-5.32-1.777-6.556-4.024-4.416-8.803 35.955-80.315 75.052-159.094 115.85-237.042.226-.431.544-.815.991-1.475l8.915 2.218-36.717 70.732z" />
                        <path class="path_8" fill="#d1d5dc"
                            d="M236.024 39.979l5.433 4.974-8.787 18.008-90.36 175.067-3.515 7.709c-3.106 7.529-4.43 7.896-11.889 2.689l2.797-5.546 97.1-190.096c1.584-3.103 2.625-6.505 4.399-9.481.788-1.321 2.773-1.928 4.551-3.079.336-.22.27-.246.27-.246z" />
                        <path class="path_9" fill="#fff"
                            d="M153.902 223.925l12.301-24.437 41.895-82.771 22.027-43.045c.651-1.269 1.437-2.469 2.161-3.701l1.566.623-14.84 41.437c-9.596 26.751-24.512 50.646-39.844 74.326l-24.544 37.747c-.441.039-.721-.179-.721-.179z" />
                        <path class="path_10" fill="#18562d"
                            d="M241.685 284.125c12.267 12.164 18.689 26.579 16.751 44.102l-.426 4.369c.005.435-.013.407-.199.553-.435.37-.638.63-.795.926l-2.84 4.225c.975-7.506-3.715-12.027-7.838-16.276-6.102-6.288-12.908-11.894-19.441-17.76-.733-.659-1.639-1.126-2.624-1.789l17.412-18.349z" />
                        <path class="path_11" fill="#246539"
                            d="M238.353 348.852c-5.842.166-11.391.842-15.355-2.761l15.451-27.979c3.959 1.642 12.375 12.647 12.25 16.718-.157 5.139-6.107 12.104-12.346 14.021z" />
                        <path class="path_12" fill="#d0d4db"
                            d="M249.968 7.899c6.146-.056 9.805 2.805 10.777 8.427.8 4.622-2.37 9.51-7.236 11.157-4.473 1.514-9.73-.527-11.992-4.655-2.714-4.953-1.4-9.785 4.035-13.476-.086 1.062-.833 1.841-.749 2.516.311 2.509.896 4.985 1.377 7.473 2.472-.569 5.652-.381 7.256-1.879 2.625-2.452 1.312-5.363-1.439-7.476-.761-.585-1.357-1.385-2.029-2.086z" />
                        <path class="path_13" fill="#edeff2"
                            d="M249.608 7.86c1.033.74 1.629 1.54 2.39 2.125 2.751 2.113 4.064 5.024 1.439 7.476-1.604 1.498-4.784 1.31-7.256 1.879l-1.377-7.473c-.084-.676.662-1.454 1.1-2.555 1.163-.744 2.253-1.117 3.704-1.452z" />
                        <path class="path_14" fill="#cbcfd6"
                            d="M238.896 35.418c-2.641-3.511-1.034-6.44 1.105-9.367l8.61 4.92c-2.318 1.997-.529 8.314-7.37 6.659-.247.348-.235.423.062.124-.572-.974-1.44-1.65-2.352-2.318-.044.006-.055-.018-.055-.018z" />
                        <path class="path_15" fill="#ddd5cd"
                            d="M131.529 253.562c3.728.838 2.725 2.75.716 3.251-2.658.664-5.606.164-9.442.164l2.641-6.186 6.084 2.771z" />
                        <path class="path_16" fill="#d7d3cc"
                            d="M238.714 35.889c.182-.471.193-.446-.258-.243.549.938 1.55 1.673 2.551 2.408 0 0-.012-.074-.043-.095l2.636 2.469-.391 1.328-6.831-1.905c-.354.129-.288.154-.269.185l-1.656-4.261c1.781.256 2.93.421 4.262.115z" />
                        <path class="path_17" fill="#fff"
                            d="M154.323 224.252c-.304 1.093-.749 2.077-1.194 3.062l-.747-.278 1.288-2.923c.232-.188.512.03.653.138z" />
                        <path class="path_18" fill="#246639"
                            d="M257.212 333.923c-.039-.144.164-.404.613-.776.038.145-.167.402-.613.776z" />
                        <path class="path_19 move_path" fill="#fff"
                            d="M397.046 348.042c-14.112 14.67-40.981 16.42-59.399 3.87-18.897-12.877-26.435-37.207-18.057-58.279 8.634-21.714 30.003-33.882 54.027-30.203l-7.177 2.028c-22.757 7.248-35.437 31.265-28.596 54.126 6.848 22.885 30.562 35.917 53.62 29.458 1.44-.403 2.859-.879 4.794-1.29.506.031.789.29.789.29z" />
                        <path class="path_20 move_path" fill="#fff"
                            d="M401.819 307.997l-4.175 1.793c4.767-6.877 5.289-12.26-2.243-16.535 7.355 1.301 12.771.282 13.683-8.365l1.176.605 2.181 9.02 11.075 1.833c-8.404 2.756-11.684 7.098-9.034 14.789l-6.964-6.2-5.699 3.06z" />
                        <path class="path_21 move_path" fill="#fff"
                            d="M396.627 347.65c.232-.229.601-.324.97-.418-.007.235-.014.469-.286.757-.265.053-.547-.205-.684-.338z" />
                        <path class="path_22" fill="#343e47"
                            d="M241.303 37.755c-1.297-.436-2.298-1.172-2.804-2.116 1.364.466 2.232 1.142 2.804 2.116z" />
                    </svg>